<?xml version="1.0" encoding="UTF-8" standalone="no"?>
<!DOCTYPE svg PUBLIC "-//W3C//DTD SVG 1.1//EN"
 "http://www.w3.org/Graphics/SVG/1.1/DTD/svg11.dtd">
<!-- Generated by graphviz version 12.1.1 (20240910.0053)
 -->
<!-- Title: snakemake_dag Pages: 1 -->
<svg width="489pt" height="476pt"
 viewBox="0.00 0.00 489.38 476.00" xmlns="http://www.w3.org/2000/svg" xmlns:xlink="http://www.w3.org/1999/xlink">
<g id="graph0" class="graph" transform="scale(1 1) rotate(0) translate(4 472)">
<title>snakemake_dag</title>
<polygon fill="white" stroke="none" points="-4,4 -4,-472 485.38,-472 485.38,4 -4,4"/>
<!-- 0 -->
<g id="node1" class="node">
<title>0</title>
<path fill="none" stroke="#d85656" stroke-width="2" d="M180.25,-36C180.25,-36 150.25,-36 150.25,-36 144.25,-36 138.25,-30 138.25,-24 138.25,-24 138.25,-12 138.25,-12 138.25,-6 144.25,0 150.25,0 150.25,0 180.25,0 180.25,0 186.25,0 192.25,-6 192.25,-12 192.25,-12 192.25,-24 192.25,-24 192.25,-30 186.25,-36 180.25,-36"/>
<text text-anchor="middle" x="165.25" y="-14.12" font-family="sans" font-size="10.00">all</text>
</g>
<!-- 1 -->
<g id="node2" class="node">
<title>1</title>
<path fill="none" stroke="#56d88a" stroke-width="2" d="M170.5,-468C170.5,-468 12,-468 12,-468 6,-468 0,-462 0,-456 0,-456 0,-444 0,-444 0,-438 6,-432 12,-432 12,-432 170.5,-432 170.5,-432 176.5,-432 182.5,-438 182.5,-444 182.5,-444 182.5,-456 182.5,-456 182.5,-462 176.5,-468 170.5,-468"/>
<text text-anchor="middle" x="91.25" y="-446.12" font-family="sans" font-size="10.00">select_best_SNP_from_LocusBreaker</text>
</g>
<!-- 1&#45;&gt;0 -->
<g id="edge1" class="edge">
<title>1&#45;&gt;0</title>
<path fill="none" stroke="grey" stroke-width="2" d="M83.19,-431.03C72.04,-404.48 53.25,-352.94 53.25,-307 53.25,-307 53.25,-307 53.25,-161 53.25,-111.99 94.9,-69.95 127.4,-44.6"/>
<polygon fill="grey" stroke="grey" stroke-width="2" points="129.25,-47.59 135.14,-38.79 125.04,-41.99 129.25,-47.59"/>
</g>
<!-- 3 -->
<g id="node4" class="node">
<title>3</title>
<path fill="none" stroke="#56d8c1" stroke-width="2" d="M155.5,-396C155.5,-396 105,-396 105,-396 99,-396 93,-390 93,-384 93,-384 93,-372 93,-372 93,-366 99,-360 105,-360 105,-360 155.5,-360 155.5,-360 161.5,-360 167.5,-366 167.5,-372 167.5,-372 167.5,-384 167.5,-384 167.5,-390 161.5,-396 155.5,-396"/>
<text text-anchor="middle" x="130.25" y="-374.12" font-family="sans" font-size="10.00">version_array</text>
</g>
<!-- 1&#45;&gt;3 -->
<g id="edge6" class="edge">
<title>1&#45;&gt;3</title>
<path fill="none" stroke="grey" stroke-width="2" d="M101.09,-431.34C104.99,-424.34 109.57,-416.12 113.94,-408.28"/>
<polygon fill="grey" stroke="grey" stroke-width="2" points="116.99,-409.99 118.8,-399.55 110.88,-406.58 116.99,-409.99"/>
</g>
<!-- 2 -->
<g id="node3" class="node">
<title>2</title>
<path fill="none" stroke="#d8bc56" stroke-width="2" d="M167.5,-252C167.5,-252 93,-252 93,-252 87,-252 81,-246 81,-240 81,-240 81,-228 81,-228 81,-222 87,-216 93,-216 93,-216 167.5,-216 167.5,-216 173.5,-216 179.5,-222 179.5,-228 179.5,-228 179.5,-240 179.5,-240 179.5,-246 173.5,-252 167.5,-252"/>
<text text-anchor="middle" x="130.25" y="-230.12" font-family="sans" font-size="10.00">heterogenous_filter</text>
</g>
<!-- 2&#45;&gt;0 -->
<g id="edge2" class="edge">
<title>2&#45;&gt;0</title>
<path fill="none" stroke="grey" stroke-width="2" d="M126.97,-215.13C122.14,-184.89 115.21,-122.06 130.25,-72 132.85,-63.34 137.37,-54.8 142.32,-47.18"/>
<polygon fill="grey" stroke="grey" stroke-width="2" points="145.02,-49.42 147.95,-39.24 139.31,-45.37 145.02,-49.42"/>
</g>
<!-- 3&#45;&gt;2 -->
<g id="edge5" class="edge">
<title>3&#45;&gt;2</title>
<path fill="none" stroke="grey" stroke-width="2" d="M130.25,-359.02C130.25,-335.54 130.25,-294.11 130.25,-265.64"/>
<polygon fill="grey" stroke="grey" stroke-width="2" points="133.75,-265.87 130.25,-255.87 126.75,-265.87 133.75,-265.87"/>
</g>
<!-- 7 -->
<g id="node8" class="node">
<title>7</title>
<path fill="none" stroke="#88d856" stroke-width="2" d="M301.62,-324C301.62,-324 182.88,-324 182.88,-324 176.88,-324 170.88,-318 170.88,-312 170.88,-312 170.88,-300 170.88,-300 170.88,-294 176.88,-288 182.88,-288 182.88,-288 301.62,-288 301.62,-288 307.62,-288 313.62,-294 313.62,-300 313.62,-300 313.62,-312 313.62,-312 313.62,-318 307.62,-324 301.62,-324"/>
<text text-anchor="middle" x="242.25" y="-302.12" font-family="sans" font-size="10.00">gene_and_protein_annotation</text>
</g>
<!-- 3&#45;&gt;7 -->
<g id="edge10" class="edge">
<title>3&#45;&gt;7</title>
<path fill="none" stroke="grey" stroke-width="2" d="M158.8,-359.15C172.23,-350.76 188.46,-340.62 203.01,-331.52"/>
<polygon fill="grey" stroke="grey" stroke-width="2" points="204.56,-334.68 211.18,-326.42 200.85,-328.75 204.56,-334.68"/>
</g>
<!-- 4 -->
<g id="node5" class="node">
<title>4</title>
<path fill="none" stroke="#d88d56" stroke-width="2" d="M289.38,-108C289.38,-108 151.12,-108 151.12,-108 145.12,-108 139.12,-102 139.12,-96 139.12,-96 139.12,-84 139.12,-84 139.12,-78 145.12,-72 151.12,-72 151.12,-72 289.38,-72 289.38,-72 295.38,-72 301.38,-78 301.38,-84 301.38,-84 301.38,-96 301.38,-96 301.38,-102 295.38,-108 289.38,-108"/>
<text text-anchor="middle" x="220.25" y="-91.75" font-family="sans" font-size="10.00">appending_single_studies_results</text>
<text text-anchor="middle" x="220.25" y="-80.5" font-family="sans" font-size="10.00">single_studies: CHRIS</text>
</g>
<!-- 4&#45;&gt;0 -->
<g id="edge3" class="edge">
<title>4&#45;&gt;0</title>
<path fill="none" stroke="grey" stroke-width="2" d="M206.37,-71.34C200.55,-63.93 193.65,-55.14 187.17,-46.9"/>
<polygon fill="grey" stroke="grey" stroke-width="2" points="190.12,-44.98 181.19,-39.28 184.61,-49.31 190.12,-44.98"/>
</g>
<!-- 5 -->
<g id="node6" class="node">
<title>5</title>
<path fill="none" stroke="#59d856" stroke-width="2" d="M285.62,-180C285.62,-180 226.88,-180 226.88,-180 220.88,-180 214.88,-174 214.88,-168 214.88,-168 214.88,-156 214.88,-156 214.88,-150 220.88,-144 226.88,-144 226.88,-144 285.62,-144 285.62,-144 291.62,-144 297.62,-150 297.62,-156 297.62,-156 297.62,-168 297.62,-168 297.62,-174 291.62,-180 285.62,-180"/>
<text text-anchor="middle" x="256.25" y="-158.12" font-family="sans" font-size="10.00">hostspot_finder</text>
</g>
<!-- 5&#45;&gt;4 -->
<g id="edge7" class="edge">
<title>5&#45;&gt;4</title>
<path fill="none" stroke="grey" stroke-width="2" d="M247.17,-143.34C243.57,-136.34 239.34,-128.12 235.31,-120.28"/>
<polygon fill="grey" stroke="grey" stroke-width="2" points="238.53,-118.89 230.84,-111.59 232.3,-122.09 238.53,-118.89"/>
</g>
<!-- 8 -->
<g id="node9" class="node">
<title>8</title>
<path fill="none" stroke="#d88d56" stroke-width="2" d="M469.38,-108C469.38,-108 331.12,-108 331.12,-108 325.12,-108 319.12,-102 319.12,-96 319.12,-96 319.12,-84 319.12,-84 319.12,-78 325.12,-72 331.12,-72 331.12,-72 469.38,-72 469.38,-72 475.38,-72 481.38,-78 481.38,-84 481.38,-84 481.38,-96 481.38,-96 481.38,-102 475.38,-108 469.38,-108"/>
<text text-anchor="middle" x="400.25" y="-91.75" font-family="sans" font-size="10.00">appending_single_studies_results</text>
<text text-anchor="middle" x="400.25" y="-80.5" font-family="sans" font-size="10.00">single_studies: INTERVAL</text>
</g>
<!-- 5&#45;&gt;8 -->
<g id="edge11" class="edge">
<title>5&#45;&gt;8</title>
<path fill="none" stroke="grey" stroke-width="2" d="M292.96,-143.15C310.83,-134.47 332.56,-123.91 351.77,-114.56"/>
<polygon fill="grey" stroke="grey" stroke-width="2" points="353.17,-117.78 360.63,-110.26 350.11,-111.48 353.17,-117.78"/>
</g>
<!-- 6 -->
<g id="node7" class="node">
<title>6</title>
<path fill="none" stroke="#bed856" stroke-width="2" d="M303.25,-252C303.25,-252 209.25,-252 209.25,-252 203.25,-252 197.25,-246 197.25,-240 197.25,-240 197.25,-228 197.25,-228 197.25,-222 203.25,-216 209.25,-216 209.25,-216 303.25,-216 303.25,-216 309.25,-216 315.25,-222 315.25,-228 315.25,-228 315.25,-240 315.25,-240 315.25,-246 309.25,-252 303.25,-252"/>
<text text-anchor="middle" x="256.25" y="-230.12" font-family="sans" font-size="10.00">backward_literature_LB</text>
</g>
<!-- 6&#45;&gt;5 -->
<g id="edge8" class="edge">
<title>6&#45;&gt;5</title>
<path fill="none" stroke="grey" stroke-width="2" d="M256.25,-215.34C256.25,-208.75 256.25,-201.08 256.25,-193.67"/>
<polygon fill="grey" stroke="grey" stroke-width="2" points="259.75,-193.93 256.25,-183.93 252.75,-193.93 259.75,-193.93"/>
</g>
<!-- 7&#45;&gt;6 -->
<g id="edge9" class="edge">
<title>7&#45;&gt;6</title>
<path fill="none" stroke="grey" stroke-width="2" d="M245.78,-287.34C247.1,-280.75 248.63,-273.08 250.12,-265.67"/>
<polygon fill="grey" stroke="grey" stroke-width="2" points="253.55,-266.36 252.08,-255.87 246.68,-264.99 253.55,-266.36"/>
</g>
<!-- 8&#45;&gt;0 -->
<g id="edge4" class="edge">
<title>8&#45;&gt;0</title>
<path fill="none" stroke="grey" stroke-width="2" d="M340.04,-71.06C297.7,-58.45 242.23,-41.93 205.25,-30.92"/>
<polygon fill="grey" stroke="grey" stroke-width="2" points="206.48,-27.63 195.9,-28.13 204.48,-34.34 206.48,-27.63"/>
</g>
</g>
</svg>
