<?xml version="1.0" encoding="UTF-8" standalone="no"?>
<!DOCTYPE svg PUBLIC "-//W3C//DTD SVG 1.1//EN"
 "http://www.w3.org/Graphics/SVG/1.1/DTD/svg11.dtd">
<!-- Generated by graphviz version 12.1.1 (20240910.0053)
 -->
<!-- Title: snakemake_dag Pages: 1 -->
<svg width="529pt" height="332pt"
 viewBox="0.00 0.00 529.12 332.00" xmlns="http://www.w3.org/2000/svg" xmlns:xlink="http://www.w3.org/1999/xlink">
<g id="graph0" class="graph" transform="scale(1 1) rotate(0) translate(4 328)">
<title>snakemake_dag</title>
<polygon fill="white" stroke="none" points="-4,4 -4,-328 525.12,-328 525.12,4 -4,4"/>
<!-- 0 -->
<g id="node1" class="node">
<title>0</title>
<path fill="none" stroke="#d89556" stroke-width="2" d="M204.25,-36C204.25,-36 174.25,-36 174.25,-36 168.25,-36 162.25,-30 162.25,-24 162.25,-24 162.25,-12 162.25,-12 162.25,-6 168.25,0 174.25,0 174.25,0 204.25,0 204.25,0 210.25,0 216.25,-6 216.25,-12 216.25,-12 216.25,-24 216.25,-24 216.25,-30 210.25,-36 204.25,-36"/>
<text text-anchor="middle" x="189.25" y="-14.12" font-family="sans" font-size="10.00">all</text>
</g>
<!-- 1 -->
<g id="node2" class="node">
<title>1</title>
<path fill="none" stroke="#d6d856" stroke-width="2" d="M170.5,-324C170.5,-324 12,-324 12,-324 6,-324 0,-318 0,-312 0,-312 0,-300 0,-300 0,-294 6,-288 12,-288 12,-288 170.5,-288 170.5,-288 176.5,-288 182.5,-294 182.5,-300 182.5,-300 182.5,-312 182.5,-312 182.5,-318 176.5,-324 170.5,-324"/>
<text text-anchor="middle" x="91.25" y="-302.12" font-family="sans" font-size="10.00">select_best_SNP_from_LocusBreaker</text>
</g>
<!-- 1&#45;&gt;0 -->
<g id="edge1" class="edge">
<title>1&#45;&gt;0</title>
<path fill="none" stroke="grey" stroke-width="2" d="M91.07,-287.16C91.4,-246.49 96.35,-144.8 135.25,-72 140.4,-62.36 147.9,-53.39 155.69,-45.67"/>
<polygon fill="grey" stroke="grey" stroke-width="2" points="157.98,-48.32 162.96,-38.97 153.23,-43.18 157.98,-48.32"/>
</g>
<!-- 2 -->
<g id="node3" class="node">
<title>2</title>
<path fill="none" stroke="#59d856" stroke-width="2" d="M179.5,-252C179.5,-252 129,-252 129,-252 123,-252 117,-246 117,-240 117,-240 117,-228 117,-228 117,-222 123,-216 129,-216 129,-216 179.5,-216 179.5,-216 185.5,-216 191.5,-222 191.5,-228 191.5,-228 191.5,-240 191.5,-240 191.5,-246 185.5,-252 179.5,-252"/>
<text text-anchor="middle" x="154.25" y="-230.12" font-family="sans" font-size="10.00">version_array</text>
</g>
<!-- 1&#45;&gt;2 -->
<g id="edge7" class="edge">
<title>1&#45;&gt;2</title>
<path fill="none" stroke="grey" stroke-width="2" d="M107.15,-287.34C113.96,-279.77 122.07,-270.75 129.63,-262.35"/>
<polygon fill="grey" stroke="grey" stroke-width="2" points="132.03,-264.93 136.11,-255.15 126.82,-260.24 132.03,-264.93"/>
</g>
<!-- 2&#45;&gt;0 -->
<g id="edge2" class="edge">
<title>2&#45;&gt;0</title>
<path fill="none" stroke="grey" stroke-width="2" d="M149.13,-215.45C141.22,-185.17 128.66,-121.59 146.25,-72 149.52,-62.79 155.14,-54.01 161.27,-46.34"/>
<polygon fill="grey" stroke="grey" stroke-width="2" points="163.82,-48.74 167.77,-38.91 158.55,-44.14 163.82,-48.74"/>
</g>
<!-- 3 -->
<g id="node4" class="node">
<title>3</title>
<path fill="none" stroke="#56d8d8" stroke-width="2" d="M261.25,-180C261.25,-180 167.25,-180 167.25,-180 161.25,-180 155.25,-174 155.25,-168 155.25,-168 155.25,-156 155.25,-156 155.25,-150 161.25,-144 167.25,-144 167.25,-144 261.25,-144 261.25,-144 267.25,-144 273.25,-150 273.25,-156 273.25,-156 273.25,-168 273.25,-168 273.25,-174 267.25,-180 261.25,-180"/>
<text text-anchor="middle" x="214.25" y="-158.12" font-family="sans" font-size="10.00">backward_literature_LB</text>
</g>
<!-- 2&#45;&gt;3 -->
<g id="edge8" class="edge">
<title>2&#45;&gt;3</title>
<path fill="none" stroke="grey" stroke-width="2" d="M169.39,-215.34C175.81,-207.85 183.44,-198.95 190.57,-190.63"/>
<polygon fill="grey" stroke="grey" stroke-width="2" points="193.09,-193.07 196.94,-183.2 187.77,-188.51 193.09,-193.07"/>
</g>
<!-- 4 -->
<g id="node5" class="node">
<title>4</title>
<path fill="none" stroke="#d85656" stroke-width="2" d="M473.5,-180C473.5,-180 399,-180 399,-180 393,-180 387,-174 387,-168 387,-168 387,-156 387,-156 387,-150 393,-144 399,-144 399,-144 473.5,-144 473.5,-144 479.5,-144 485.5,-150 485.5,-156 485.5,-156 485.5,-168 485.5,-168 485.5,-174 479.5,-180 473.5,-180"/>
<text text-anchor="middle" x="436.25" y="-158.12" font-family="sans" font-size="10.00">heterogenous_filter</text>
</g>
<!-- 2&#45;&gt;4 -->
<g id="edge9" class="edge">
<title>2&#45;&gt;4</title>
<path fill="none" stroke="grey" stroke-width="2" d="M192.28,-223.56C238.87,-212 318.42,-192.25 373.98,-178.46"/>
<polygon fill="grey" stroke="grey" stroke-width="2" points="374.7,-181.89 383.56,-176.08 373.01,-175.09 374.7,-181.89"/>
</g>
<!-- 3&#45;&gt;0 -->
<g id="edge3" class="edge">
<title>3&#45;&gt;0</title>
<path fill="none" stroke="grey" stroke-width="2" d="M184.73,-143.03C172.93,-134.11 160.65,-122.19 154.25,-108 145.25,-88.04 154.81,-65.03 166.2,-47.4"/>
<polygon fill="grey" stroke="grey" stroke-width="2" points="168.92,-49.61 171.82,-39.42 163.2,-45.57 168.92,-49.61"/>
</g>
<!-- 5 -->
<g id="node6" class="node">
<title>5</title>
<path fill="none" stroke="#569ad8" stroke-width="2" d="M313.38,-108C313.38,-108 175.12,-108 175.12,-108 169.12,-108 163.12,-102 163.12,-96 163.12,-96 163.12,-84 163.12,-84 163.12,-78 169.12,-72 175.12,-72 175.12,-72 313.38,-72 313.38,-72 319.38,-72 325.38,-78 325.38,-84 325.38,-84 325.38,-96 325.38,-96 325.38,-102 319.38,-108 313.38,-108"/>
<text text-anchor="middle" x="244.25" y="-91.75" font-family="sans" font-size="10.00">appending_single_studies_results</text>
<text text-anchor="middle" x="244.25" y="-80.5" font-family="sans" font-size="10.00">single_studies: CHRIS</text>
</g>
<!-- 3&#45;&gt;5 -->
<g id="edge10" class="edge">
<title>3&#45;&gt;5</title>
<path fill="none" stroke="grey" stroke-width="2" d="M221.82,-143.34C224.75,-136.51 228.18,-128.5 231.46,-120.83"/>
<polygon fill="grey" stroke="grey" stroke-width="2" points="234.66,-122.25 235.39,-111.68 228.23,-119.5 234.66,-122.25"/>
</g>
<!-- 6 -->
<g id="node7" class="node">
<title>6</title>
<path fill="none" stroke="#569ad8" stroke-width="2" d="M493.38,-108C493.38,-108 355.12,-108 355.12,-108 349.12,-108 343.12,-102 343.12,-96 343.12,-96 343.12,-84 343.12,-84 343.12,-78 349.12,-72 355.12,-72 355.12,-72 493.38,-72 493.38,-72 499.38,-72 505.38,-78 505.38,-84 505.38,-84 505.38,-96 505.38,-96 505.38,-102 499.38,-108 493.38,-108"/>
<text text-anchor="middle" x="424.25" y="-91.75" font-family="sans" font-size="10.00">appending_single_studies_results</text>
<text text-anchor="middle" x="424.25" y="-80.5" font-family="sans" font-size="10.00">single_studies: INTERVAL</text>
</g>
<!-- 3&#45;&gt;6 -->
<g id="edge11" class="edge">
<title>3&#45;&gt;6</title>
<path fill="none" stroke="grey" stroke-width="2" d="M268.06,-143.06C295.6,-133.88 329.36,-122.63 358.44,-112.94"/>
<polygon fill="grey" stroke="grey" stroke-width="2" points="359.33,-116.33 367.71,-109.85 357.12,-109.69 359.33,-116.33"/>
</g>
<!-- 4&#45;&gt;0 -->
<g id="edge4" class="edge">
<title>4&#45;&gt;0</title>
<path fill="none" stroke="grey" stroke-width="2" d="M477.66,-143.05C491.91,-134.62 506.28,-123.05 514.25,-108 521.74,-93.86 524.61,-84.19 514.25,-72 478.2,-29.59 308.94,-21.03 229.99,-19.37"/>
<polygon fill="grey" stroke="grey" stroke-width="2" points="230.32,-15.87 220.26,-19.19 230.2,-22.87 230.32,-15.87"/>
</g>
<!-- 5&#45;&gt;0 -->
<g id="edge5" class="edge">
<title>5&#45;&gt;0</title>
<path fill="none" stroke="grey" stroke-width="2" d="M230.37,-71.34C224.55,-63.93 217.65,-55.14 211.17,-46.9"/>
<polygon fill="grey" stroke="grey" stroke-width="2" points="214.12,-44.98 205.19,-39.28 208.61,-49.31 214.12,-44.98"/>
</g>
<!-- 6&#45;&gt;0 -->
<g id="edge6" class="edge">
<title>6&#45;&gt;0</title>
<path fill="none" stroke="grey" stroke-width="2" d="M364.04,-71.06C321.7,-58.45 266.23,-41.93 229.25,-30.92"/>
<polygon fill="grey" stroke="grey" stroke-width="2" points="230.48,-27.63 219.9,-28.13 228.48,-34.34 230.48,-27.63"/>
</g>
</g>
</svg>
