<?xml version="1.0" encoding="UTF-8" standalone="no"?>
<!DOCTYPE svg PUBLIC "-//W3C//DTD SVG 1.1//EN"
 "http://www.w3.org/Graphics/SVG/1.1/DTD/svg11.dtd">
<!-- Generated by graphviz version 10.0.1 (20240210.2158)
 -->
<!-- Title: snakemake_dag Pages: 1 -->
<svg width="267pt" height="260pt"
 viewBox="0.00 0.00 266.50 260.00" xmlns="http://www.w3.org/2000/svg" xmlns:xlink="http://www.w3.org/1999/xlink">
<g id="graph0" class="graph" transform="scale(1 1) rotate(0) translate(4 256)">
<title>snakemake_dag</title>
<polygon fill="white" stroke="none" points="-4,4 -4,-256 262.5,-256 262.5,4 -4,4"/>
<!-- 0 -->
<g id="node1" class="node">
<title>0</title>
<path fill="none" stroke="#59d856" stroke-width="2" d="M122.25,-36C122.25,-36 92.25,-36 92.25,-36 86.25,-36 80.25,-30 80.25,-24 80.25,-24 80.25,-12 80.25,-12 80.25,-6 86.25,0 92.25,0 92.25,0 122.25,0 122.25,0 128.25,0 134.25,-6 134.25,-12 134.25,-12 134.25,-24 134.25,-24 134.25,-30 128.25,-36 122.25,-36"/>
<text text-anchor="middle" x="107.25" y="-14.12" font-family="sans" font-size="10.00">all</text>
</g>
<!-- 1 -->
<g id="node2" class="node">
<title>1</title>
<path fill="none" stroke="#d85656" stroke-width="2" d="M127.62,-180C127.62,-180 86.88,-180 86.88,-180 80.88,-180 74.88,-174 74.88,-168 74.88,-168 74.88,-156 74.88,-156 74.88,-150 80.88,-144 86.88,-144 86.88,-144 127.62,-144 127.62,-144 133.62,-144 139.62,-150 139.62,-156 139.62,-156 139.62,-168 139.62,-168 139.62,-174 133.62,-180 127.62,-180"/>
<text text-anchor="middle" x="107.25" y="-158.12" font-family="sans" font-size="10.00">collect_loci</text>
</g>
<!-- 1&#45;&gt;0 -->
<g id="edge1" class="edge">
<title>1&#45;&gt;0</title>
<path fill="none" stroke="grey" stroke-width="2" d="M89.1,-143.12C80.71,-133.58 71.64,-121.12 67.25,-108 62.17,-92.83 62.17,-87.17 67.25,-72 70.24,-63.08 75.38,-54.47 81,-46.87"/>
<polygon fill="grey" stroke="grey" stroke-width="2" points="83.62,-49.2 87.19,-39.23 78.18,-44.8 83.62,-49.2"/>
</g>
<!-- 4 -->
<g id="node5" class="node">
<title>4</title>
<path fill="none" stroke="#56d8d8" stroke-width="2" d="M246.5,-108C246.5,-108 88,-108 88,-108 82,-108 76,-102 76,-96 76,-96 76,-84 76,-84 76,-78 82,-72 88,-72 88,-72 246.5,-72 246.5,-72 252.5,-72 258.5,-78 258.5,-84 258.5,-84 258.5,-96 258.5,-96 258.5,-102 252.5,-108 246.5,-108"/>
<text text-anchor="middle" x="167.25" y="-86.12" font-family="sans" font-size="10.00">select_best_SNP_from_LocusBreaker</text>
</g>
<!-- 1&#45;&gt;4 -->
<g id="edge5" class="edge">
<title>1&#45;&gt;4</title>
<path fill="none" stroke="grey" stroke-width="2" d="M122.39,-143.34C128.81,-135.85 136.44,-126.95 143.57,-118.63"/>
<polygon fill="grey" stroke="grey" stroke-width="2" points="146.09,-121.07 149.94,-111.2 140.77,-116.51 146.09,-121.07"/>
</g>
<!-- 2 -->
<g id="node3" class="node">
<title>2</title>
<path fill="none" stroke="#d6d856" stroke-width="2" d="M86.5,-252C86.5,-252 12,-252 12,-252 6,-252 0,-246 0,-240 0,-240 0,-228 0,-228 0,-222 6,-216 12,-216 12,-216 86.5,-216 86.5,-216 92.5,-216 98.5,-222 98.5,-228 98.5,-228 98.5,-240 98.5,-240 98.5,-246 92.5,-252 86.5,-252"/>
<text text-anchor="middle" x="49.25" y="-235.75" font-family="sans" font-size="10.00">break_locus</text>
<text text-anchor="middle" x="49.25" y="-224.5" font-family="sans" font-size="10.00">seqid: seq.00001.1</text>
</g>
<!-- 2&#45;&gt;1 -->
<g id="edge3" class="edge">
<title>2&#45;&gt;1</title>
<path fill="none" stroke="grey" stroke-width="2" d="M63.89,-215.34C70.02,-207.93 77.3,-199.14 84.13,-190.9"/>
<polygon fill="grey" stroke="grey" stroke-width="2" points="86.8,-193.17 90.49,-183.23 81.41,-188.7 86.8,-193.17"/>
</g>
<!-- 3 -->
<g id="node4" class="node">
<title>3</title>
<path fill="none" stroke="#d6d856" stroke-width="2" d="M203.5,-252C203.5,-252 129,-252 129,-252 123,-252 117,-246 117,-240 117,-240 117,-228 117,-228 117,-222 123,-216 129,-216 129,-216 203.5,-216 203.5,-216 209.5,-216 215.5,-222 215.5,-228 215.5,-228 215.5,-240 215.5,-240 215.5,-246 209.5,-252 203.5,-252"/>
<text text-anchor="middle" x="166.25" y="-235.75" font-family="sans" font-size="10.00">break_locus</text>
<text text-anchor="middle" x="166.25" y="-224.5" font-family="sans" font-size="10.00">seqid: seq.00001.2</text>
</g>
<!-- 3&#45;&gt;1 -->
<g id="edge4" class="edge">
<title>3&#45;&gt;1</title>
<path fill="none" stroke="grey" stroke-width="2" d="M151.36,-215.34C145.05,-207.85 137.55,-198.95 130.54,-190.63"/>
<polygon fill="grey" stroke="grey" stroke-width="2" points="133.41,-188.61 124.29,-183.22 128.06,-193.12 133.41,-188.61"/>
</g>
<!-- 4&#45;&gt;0 -->
<g id="edge2" class="edge">
<title>4&#45;&gt;0</title>
<path fill="none" stroke="grey" stroke-width="2" d="M152.11,-71.34C145.69,-63.85 138.06,-54.95 130.93,-46.63"/>
<polygon fill="grey" stroke="grey" stroke-width="2" points="133.73,-44.51 124.56,-39.2 128.41,-49.07 133.73,-44.51"/>
</g>
</g>
</svg>
