<?xml version="1.0" encoding="UTF-8" standalone="no"?>
<!DOCTYPE svg PUBLIC "-//W3C//DTD SVG 1.1//EN"
 "http://www.w3.org/Graphics/SVG/1.1/DTD/svg11.dtd">
<!-- Generated by graphviz version 2.50.0 (0)
 -->
<!-- Title: snakemake_dag Pages: 1 -->
<svg width="267pt" height="332pt"
 viewBox="0.00 0.00 267.00 332.00" xmlns="http://www.w3.org/2000/svg" xmlns:xlink="http://www.w3.org/1999/xlink">
<g id="graph0" class="graph" transform="scale(1 1) rotate(0) translate(4 328)">
<title>snakemake_dag</title>
<polygon fill="white" stroke="transparent" points="-4,4 -4,-328 263,-328 263,4 -4,4"/>
<!-- 0 -->
<g id="node1" class="node">
<title>0</title>
<path fill="none" stroke="#d85656" stroke-width="2" d="M100.5,-36C100.5,-36 70.5,-36 70.5,-36 64.5,-36 58.5,-30 58.5,-24 58.5,-24 58.5,-12 58.5,-12 58.5,-6 64.5,0 70.5,0 70.5,0 100.5,0 100.5,0 106.5,0 112.5,-6 112.5,-12 112.5,-12 112.5,-24 112.5,-24 112.5,-30 106.5,-36 100.5,-36"/>
<text text-anchor="middle" x="85.5" y="-15.5" font-family="sans" font-size="10.00">all</text>
</g>
<!-- 1 -->
<g id="node2" class="node">
<title>1</title>
<path fill="none" stroke="#d8bc56" stroke-width="2" d="M128,-252C128,-252 87,-252 87,-252 81,-252 75,-246 75,-240 75,-240 75,-228 75,-228 75,-222 81,-216 87,-216 87,-216 128,-216 128,-216 134,-216 140,-222 140,-228 140,-228 140,-240 140,-240 140,-246 134,-252 128,-252"/>
<text text-anchor="middle" x="107.5" y="-231.5" font-family="sans" font-size="10.00">collect_loci</text>
</g>
<!-- 1&#45;&gt;0 -->
<g id="edge1" class="edge">
<title>1&#45;&gt;0</title>
<path fill="none" stroke="grey" stroke-width="2" d="M89.33,-215.68C80.62,-206.1 71.09,-193.43 66.5,-180 51.06,-134.82 64.43,-78.82 75.2,-46.18"/>
<polygon fill="grey" stroke="grey" stroke-width="2" points="78.61,-47.04 78.57,-36.45 71.99,-44.75 78.61,-47.04"/>
</g>
<!-- 4 -->
<g id="node5" class="node">
<title>4</title>
<path fill="none" stroke="#56d88a" stroke-width="2" d="M247,-180C247,-180 88,-180 88,-180 82,-180 76,-174 76,-168 76,-168 76,-156 76,-156 76,-150 82,-144 88,-144 88,-144 247,-144 247,-144 253,-144 259,-150 259,-156 259,-156 259,-168 259,-168 259,-174 253,-180 247,-180"/>
<text text-anchor="middle" x="167.5" y="-159.5" font-family="sans" font-size="10.00">select_best_SNP_from_LocusBreaker</text>
</g>
<!-- 1&#45;&gt;4 -->
<g id="edge6" class="edge">
<title>1&#45;&gt;4</title>
<path fill="none" stroke="grey" stroke-width="2" d="M122.33,-215.7C129.52,-207.3 138.3,-197.07 146.19,-187.86"/>
<polygon fill="grey" stroke="grey" stroke-width="2" points="148.99,-189.97 152.84,-180.1 143.67,-185.42 148.99,-189.97"/>
</g>
<!-- 2 -->
<g id="node3" class="node">
<title>2</title>
<path fill="none" stroke="#56c1d8" stroke-width="2" d="M87,-324C87,-324 12,-324 12,-324 6,-324 0,-318 0,-312 0,-312 0,-300 0,-300 0,-294 6,-288 12,-288 12,-288 87,-288 87,-288 93,-288 99,-294 99,-300 99,-300 99,-312 99,-312 99,-318 93,-324 87,-324"/>
<text text-anchor="middle" x="49.5" y="-309" font-family="sans" font-size="10.00">break_locus</text>
<text text-anchor="middle" x="49.5" y="-298" font-family="sans" font-size="10.00">seqid: seq.00001.1</text>
</g>
<!-- 2&#45;&gt;1 -->
<g id="edge4" class="edge">
<title>2&#45;&gt;1</title>
<path fill="none" stroke="grey" stroke-width="2" d="M63.84,-287.7C70.79,-279.3 79.27,-269.07 86.9,-259.86"/>
<polygon fill="grey" stroke="grey" stroke-width="2" points="89.64,-262.04 93.33,-252.1 84.25,-257.57 89.64,-262.04"/>
</g>
<!-- 3 -->
<g id="node4" class="node">
<title>3</title>
<path fill="none" stroke="#56c1d8" stroke-width="2" d="M204,-324C204,-324 129,-324 129,-324 123,-324 117,-318 117,-312 117,-312 117,-300 117,-300 117,-294 123,-288 129,-288 129,-288 204,-288 204,-288 210,-288 216,-294 216,-300 216,-300 216,-312 216,-312 216,-318 210,-324 204,-324"/>
<text text-anchor="middle" x="166.5" y="-309" font-family="sans" font-size="10.00">break_locus</text>
<text text-anchor="middle" x="166.5" y="-298" font-family="sans" font-size="10.00">seqid: seq.00001.2</text>
</g>
<!-- 3&#45;&gt;1 -->
<g id="edge5" class="edge">
<title>3&#45;&gt;1</title>
<path fill="none" stroke="grey" stroke-width="2" d="M151.92,-287.7C144.84,-279.3 136.22,-269.07 128.45,-259.86"/>
<polygon fill="grey" stroke="grey" stroke-width="2" points="131.04,-257.49 121.92,-252.1 125.69,-262.01 131.04,-257.49"/>
</g>
<!-- 4&#45;&gt;0 -->
<g id="edge2" class="edge">
<title>4&#45;&gt;0</title>
<path fill="none" stroke="grey" stroke-width="2" d="M139.56,-143.77C127.01,-134.64 113.11,-122.34 104.5,-108 93.28,-89.32 88.63,-64.93 86.74,-46.41"/>
<polygon fill="grey" stroke="grey" stroke-width="2" points="90.21,-45.95 85.91,-36.27 83.23,-46.52 90.21,-45.95"/>
</g>
<!-- 5 -->
<g id="node6" class="node">
<title>5</title>
<path fill="none" stroke="#88d856" stroke-width="2" d="M221,-108C221,-108 126,-108 126,-108 120,-108 114,-102 114,-96 114,-96 114,-84 114,-84 114,-78 120,-72 126,-72 126,-72 221,-72 221,-72 227,-72 233,-78 233,-84 233,-84 233,-96 233,-96 233,-102 227,-108 221,-108"/>
<text text-anchor="middle" x="173.5" y="-87.5" font-family="sans" font-size="10.00">backward_literature_LB</text>
</g>
<!-- 4&#45;&gt;5 -->
<g id="edge7" class="edge">
<title>4&#45;&gt;5</title>
<path fill="none" stroke="grey" stroke-width="2" d="M168.98,-143.7C169.64,-135.98 170.44,-126.71 171.18,-118.11"/>
<polygon fill="grey" stroke="grey" stroke-width="2" points="174.67,-118.37 172.03,-108.1 167.69,-117.77 174.67,-118.37"/>
</g>
<!-- 5&#45;&gt;0 -->
<g id="edge3" class="edge">
<title>5&#45;&gt;0</title>
<path fill="none" stroke="grey" stroke-width="2" d="M151.75,-71.7C140.66,-62.88 127.03,-52.03 115.01,-42.47"/>
<polygon fill="grey" stroke="grey" stroke-width="2" points="117.01,-39.59 107,-36.1 112.65,-45.07 117.01,-39.59"/>
</g>
</g>
</svg>
