<?xml version="1.0" encoding="UTF-8" standalone="no"?>
<!DOCTYPE svg PUBLIC "-//W3C//DTD SVG 1.1//EN"
 "http://www.w3.org/Graphics/SVG/1.1/DTD/svg11.dtd">
<!-- Generated by graphviz version 12.1.1 (20240910.0053)
 -->
<!-- Title: snakemake_dag Pages: 1 -->
<svg width="477pt" height="476pt"
 viewBox="0.00 0.00 477.38 476.00" xmlns="http://www.w3.org/2000/svg" xmlns:xlink="http://www.w3.org/1999/xlink">
<g id="graph0" class="graph" transform="scale(1 1) rotate(0) translate(4 472)">
<title>snakemake_dag</title>
<polygon fill="white" stroke="none" points="-4,4 -4,-472 473.38,-472 473.38,4 -4,4"/>
<!-- 0 -->
<g id="node1" class="node">
<title>0</title>
<path fill="none" stroke="#d88d56" stroke-width="2" d="M168.25,-36C168.25,-36 138.25,-36 138.25,-36 132.25,-36 126.25,-30 126.25,-24 126.25,-24 126.25,-12 126.25,-12 126.25,-6 132.25,0 138.25,0 138.25,0 168.25,0 168.25,0 174.25,0 180.25,-6 180.25,-12 180.25,-12 180.25,-24 180.25,-24 180.25,-30 174.25,-36 168.25,-36"/>
<text text-anchor="middle" x="153.25" y="-14.12" font-family="sans" font-size="10.00">all</text>
</g>
<!-- 1 -->
<g id="node2" class="node">
<title>1</title>
<path fill="none" stroke="#d85656" stroke-width="2" d="M170.5,-468C170.5,-468 12,-468 12,-468 6,-468 0,-462 0,-456 0,-456 0,-444 0,-444 0,-438 6,-432 12,-432 12,-432 170.5,-432 170.5,-432 176.5,-432 182.5,-438 182.5,-444 182.5,-444 182.5,-456 182.5,-456 182.5,-462 176.5,-468 170.5,-468"/>
<text text-anchor="middle" x="91.25" y="-446.12" font-family="sans" font-size="10.00">select_best_SNP_from_LocusBreaker</text>
</g>
<!-- 1&#45;&gt;0 -->
<g id="edge1" class="edge">
<title>1&#45;&gt;0</title>
<path fill="none" stroke="grey" stroke-width="2" d="M79.26,-431.04C73.09,-421.08 65.9,-408.26 61.25,-396 46.9,-358.18 42.25,-347.45 42.25,-307 42.25,-307 42.25,-307 42.25,-161 42.25,-112.01 83.76,-69.83 116.01,-44.46"/>
<polygon fill="grey" stroke="grey" stroke-width="2" points="117.82,-47.48 123.68,-38.65 113.6,-41.9 117.82,-47.48"/>
</g>
<!-- 4 -->
<g id="node5" class="node">
<title>4</title>
<path fill="none" stroke="#56c1d8" stroke-width="2" d="M200.62,-396C200.62,-396 81.88,-396 81.88,-396 75.87,-396 69.88,-390 69.88,-384 69.88,-384 69.88,-372 69.88,-372 69.88,-366 75.88,-360 81.88,-360 81.88,-360 200.62,-360 200.62,-360 206.62,-360 212.62,-366 212.62,-372 212.62,-372 212.62,-384 212.62,-384 212.62,-390 206.62,-396 200.62,-396"/>
<text text-anchor="middle" x="141.25" y="-374.12" font-family="sans" font-size="10.00">gene_and_protein_annotation</text>
</g>
<!-- 1&#45;&gt;4 -->
<g id="edge7" class="edge">
<title>1&#45;&gt;4</title>
<path fill="none" stroke="grey" stroke-width="2" d="M103.87,-431.34C109.04,-424.1 115.16,-415.53 120.93,-407.45"/>
<polygon fill="grey" stroke="grey" stroke-width="2" points="123.74,-409.54 126.7,-399.37 118.04,-405.47 123.74,-409.54"/>
</g>
<!-- 2 -->
<g id="node3" class="node">
<title>2</title>
<path fill="none" stroke="#88d856" stroke-width="2" d="M156.5,-180C156.5,-180 82,-180 82,-180 76,-180 70,-174 70,-168 70,-168 70,-156 70,-156 70,-150 76,-144 82,-144 82,-144 156.5,-144 156.5,-144 162.5,-144 168.5,-150 168.5,-156 168.5,-156 168.5,-168 168.5,-168 168.5,-174 162.5,-180 156.5,-180"/>
<text text-anchor="middle" x="119.25" y="-158.12" font-family="sans" font-size="10.00">heterogenous_filter</text>
</g>
<!-- 2&#45;&gt;0 -->
<g id="edge2" class="edge">
<title>2&#45;&gt;0</title>
<path fill="none" stroke="grey" stroke-width="2" d="M115.98,-143.17C113.33,-124.89 111.09,-95.83 118.25,-72 120.85,-63.34 125.37,-54.8 130.32,-47.18"/>
<polygon fill="grey" stroke="grey" stroke-width="2" points="133.02,-49.42 135.95,-39.24 127.31,-45.37 133.02,-49.42"/>
</g>
<!-- 3 -->
<g id="node4" class="node">
<title>3</title>
<path fill="none" stroke="#568ad8" stroke-width="2" d="M166.5,-324C166.5,-324 116,-324 116,-324 110,-324 104,-318 104,-312 104,-312 104,-300 104,-300 104,-294 110,-288 116,-288 116,-288 166.5,-288 166.5,-288 172.5,-288 178.5,-294 178.5,-300 178.5,-300 178.5,-312 178.5,-312 178.5,-318 172.5,-324 166.5,-324"/>
<text text-anchor="middle" x="141.25" y="-302.12" font-family="sans" font-size="10.00">version_array</text>
</g>
<!-- 3&#45;&gt;2 -->
<g id="edge5" class="edge">
<title>3&#45;&gt;2</title>
<path fill="none" stroke="grey" stroke-width="2" d="M138.46,-287.02C134.83,-263.54 128.41,-222.11 124,-193.64"/>
<polygon fill="grey" stroke="grey" stroke-width="2" points="127.47,-193.18 122.48,-183.83 120.55,-194.25 127.47,-193.18"/>
</g>
<!-- 7 -->
<g id="node8" class="node">
<title>7</title>
<path fill="none" stroke="#56d88a" stroke-width="2" d="M269.25,-252C269.25,-252 175.25,-252 175.25,-252 169.25,-252 163.25,-246 163.25,-240 163.25,-240 163.25,-228 163.25,-228 163.25,-222 169.25,-216 175.25,-216 175.25,-216 269.25,-216 269.25,-216 275.25,-216 281.25,-222 281.25,-228 281.25,-228 281.25,-240 281.25,-240 281.25,-246 275.25,-252 269.25,-252"/>
<text text-anchor="middle" x="222.25" y="-230.12" font-family="sans" font-size="10.00">backward_literature_LB</text>
</g>
<!-- 3&#45;&gt;7 -->
<g id="edge10" class="edge">
<title>3&#45;&gt;7</title>
<path fill="none" stroke="grey" stroke-width="2" d="M161.69,-287.34C170.83,-279.44 181.79,-269.96 191.86,-261.26"/>
<polygon fill="grey" stroke="grey" stroke-width="2" points="193.97,-264.07 199.24,-254.88 189.39,-258.77 193.97,-264.07"/>
</g>
<!-- 4&#45;&gt;3 -->
<g id="edge6" class="edge">
<title>4&#45;&gt;3</title>
<path fill="none" stroke="grey" stroke-width="2" d="M141.25,-359.34C141.25,-352.75 141.25,-345.08 141.25,-337.67"/>
<polygon fill="grey" stroke="grey" stroke-width="2" points="144.75,-337.93 141.25,-327.93 137.75,-337.93 144.75,-337.93"/>
</g>
<!-- 5 -->
<g id="node6" class="node">
<title>5</title>
<path fill="none" stroke="#bed856" stroke-width="2" d="M277.38,-108C277.38,-108 139.12,-108 139.12,-108 133.12,-108 127.12,-102 127.12,-96 127.12,-96 127.12,-84 127.12,-84 127.12,-78 133.12,-72 139.12,-72 139.12,-72 277.38,-72 277.38,-72 283.38,-72 289.38,-78 289.38,-84 289.38,-84 289.38,-96 289.38,-96 289.38,-102 283.38,-108 277.38,-108"/>
<text text-anchor="middle" x="208.25" y="-91.75" font-family="sans" font-size="10.00">appending_single_studies_results</text>
<text text-anchor="middle" x="208.25" y="-80.5" font-family="sans" font-size="10.00">single_studies: CHRIS</text>
</g>
<!-- 5&#45;&gt;0 -->
<g id="edge3" class="edge">
<title>5&#45;&gt;0</title>
<path fill="none" stroke="grey" stroke-width="2" d="M194.37,-71.34C188.55,-63.93 181.65,-55.14 175.17,-46.9"/>
<polygon fill="grey" stroke="grey" stroke-width="2" points="178.12,-44.98 169.19,-39.28 172.61,-49.31 178.12,-44.98"/>
</g>
<!-- 6 -->
<g id="node7" class="node">
<title>6</title>
<path fill="none" stroke="#59d856" stroke-width="2" d="M257.62,-180C257.62,-180 198.88,-180 198.88,-180 192.88,-180 186.88,-174 186.88,-168 186.88,-168 186.88,-156 186.88,-156 186.88,-150 192.88,-144 198.88,-144 198.88,-144 257.62,-144 257.62,-144 263.62,-144 269.62,-150 269.62,-156 269.62,-156 269.62,-168 269.62,-168 269.62,-174 263.62,-180 257.62,-180"/>
<text text-anchor="middle" x="228.25" y="-158.12" font-family="sans" font-size="10.00">hostspot_finder</text>
</g>
<!-- 6&#45;&gt;5 -->
<g id="edge8" class="edge">
<title>6&#45;&gt;5</title>
<path fill="none" stroke="grey" stroke-width="2" d="M223.2,-143.34C221.3,-136.67 219.07,-128.89 216.93,-121.39"/>
<polygon fill="grey" stroke="grey" stroke-width="2" points="220.31,-120.47 214.2,-111.81 213.58,-122.39 220.31,-120.47"/>
</g>
<!-- 8 -->
<g id="node9" class="node">
<title>8</title>
<path fill="none" stroke="#bed856" stroke-width="2" d="M457.38,-108C457.38,-108 319.12,-108 319.12,-108 313.12,-108 307.12,-102 307.12,-96 307.12,-96 307.12,-84 307.12,-84 307.12,-78 313.12,-72 319.12,-72 319.12,-72 457.38,-72 457.38,-72 463.38,-72 469.38,-78 469.38,-84 469.38,-84 469.38,-96 469.38,-96 469.38,-102 463.38,-108 457.38,-108"/>
<text text-anchor="middle" x="388.25" y="-91.75" font-family="sans" font-size="10.00">appending_single_studies_results</text>
<text text-anchor="middle" x="388.25" y="-80.5" font-family="sans" font-size="10.00">single_studies: INTERVAL</text>
</g>
<!-- 6&#45;&gt;8 -->
<g id="edge11" class="edge">
<title>6&#45;&gt;8</title>
<path fill="none" stroke="grey" stroke-width="2" d="M269.04,-143.15C289.27,-134.3 313.95,-123.51 335.59,-114.04"/>
<polygon fill="grey" stroke="grey" stroke-width="2" points="336.73,-117.36 344.48,-110.15 333.92,-110.95 336.73,-117.36"/>
</g>
<!-- 7&#45;&gt;6 -->
<g id="edge9" class="edge">
<title>7&#45;&gt;6</title>
<path fill="none" stroke="grey" stroke-width="2" d="M223.76,-215.34C224.33,-208.75 224.99,-201.08 225.62,-193.67"/>
<polygon fill="grey" stroke="grey" stroke-width="2" points="229.09,-194.18 226.46,-183.92 222.12,-193.58 229.09,-194.18"/>
</g>
<!-- 8&#45;&gt;0 -->
<g id="edge4" class="edge">
<title>8&#45;&gt;0</title>
<path fill="none" stroke="grey" stroke-width="2" d="M328.04,-71.06C285.7,-58.45 230.23,-41.93 193.25,-30.92"/>
<polygon fill="grey" stroke="grey" stroke-width="2" points="194.48,-27.63 183.9,-28.13 192.48,-34.34 194.48,-27.63"/>
</g>
</g>
</svg>
