<?xml version="1.0" encoding="UTF-8" standalone="no"?>
<!DOCTYPE svg PUBLIC "-//W3C//DTD SVG 1.1//EN"
 "http://www.w3.org/Graphics/SVG/1.1/DTD/svg11.dtd">
<!-- Generated by graphviz version 2.40.1 (0)
 -->
<!-- Title: snakemake_dag Pages: 1 -->
<svg width="629pt" height="548pt"
 viewBox="0.00 0.00 629.00 548.00" xmlns="http://www.w3.org/2000/svg" xmlns:xlink="http://www.w3.org/1999/xlink">
<g id="graph0" class="graph" transform="scale(1 1) rotate(0) translate(4 544)">
<title>snakemake_dag</title>
<polygon fill="#ffffff" stroke="transparent" points="-4,4 -4,-544 625,-544 625,4 -4,4"/>
<!-- 0 -->
<g id="node1" class="node">
<title>0</title>
<path fill="none" stroke="#d85656" stroke-width="2" d="M227.5,-36C227.5,-36 197.5,-36 197.5,-36 191.5,-36 185.5,-30 185.5,-24 185.5,-24 185.5,-12 185.5,-12 185.5,-6 191.5,0 197.5,0 197.5,0 227.5,0 227.5,0 233.5,0 239.5,-6 239.5,-12 239.5,-12 239.5,-24 239.5,-24 239.5,-30 233.5,-36 227.5,-36"/>
<text text-anchor="middle" x="212.5" y="-15.5" font-family="sans" font-size="10.00" fill="#000000">all</text>
</g>
<!-- 1 -->
<g id="node2" class="node">
<title>1</title>
<path fill="none" stroke="#56b1d8" stroke-width="2" d="M185,-540C185,-540 12,-540 12,-540 6,-540 0,-534 0,-528 0,-528 0,-516 0,-516 0,-510 6,-504 12,-504 12,-504 185,-504 185,-504 191,-504 197,-510 197,-516 197,-516 197,-528 197,-528 197,-534 191,-540 185,-540"/>
<text text-anchor="middle" x="98.5" y="-519.5" font-family="sans" font-size="10.00" fill="#000000">select_best_SNP_from_LocusBreaker</text>
</g>
<!-- 1&#45;&gt;0 -->
<g id="edge1" class="edge">
<title>1&#45;&gt;0</title>
<path fill="none" stroke="#c0c0c0" stroke-width="2" d="M84.3968,-503.9479C77.1638,-493.8743 68.7869,-480.8047 63.5,-468 47.8981,-430.2126 44.5,-418.8816 44.5,-378 44.5,-378 44.5,-378 44.5,-162 44.5,-93.3936 126.2639,-50.4278 175.7096,-30.7173"/>
<polygon fill="#c0c0c0" stroke="#c0c0c0" stroke-width="2" points="177.062,-33.9471 185.134,-27.0846 174.5443,-27.4155 177.062,-33.9471"/>
</g>
<!-- 5 -->
<g id="node6" class="node">
<title>5</title>
<path fill="none" stroke="#56d86b" stroke-width="2" d="M222,-468C222,-468 85,-468 85,-468 79,-468 73,-462 73,-456 73,-456 73,-444 73,-444 73,-438 79,-432 85,-432 85,-432 222,-432 222,-432 228,-432 234,-438 234,-444 234,-444 234,-456 234,-456 234,-462 228,-468 222,-468"/>
<text text-anchor="middle" x="153.5" y="-447.5" font-family="sans" font-size="10.00" fill="#000000">gene_and_protein_annotation</text>
</g>
<!-- 1&#45;&gt;5 -->
<g id="edge9" class="edge">
<title>1&#45;&gt;5</title>
<path fill="none" stroke="#c0c0c0" stroke-width="2" d="M112.3788,-503.8314C118.7136,-495.5386 126.3384,-485.557 133.2926,-476.4533"/>
<polygon fill="#c0c0c0" stroke="#c0c0c0" stroke-width="2" points="136.1452,-478.4847 139.4343,-468.4133 130.5825,-474.2353 136.1452,-478.4847"/>
</g>
<!-- 2 -->
<g id="node3" class="node">
<title>2</title>
<path fill="none" stroke="#56d89a" stroke-width="2" d="M172,-180C172,-180 85,-180 85,-180 79,-180 73,-174 73,-168 73,-168 73,-156 73,-156 73,-150 79,-144 85,-144 85,-144 172,-144 172,-144 178,-144 184,-150 184,-156 184,-156 184,-168 184,-168 184,-174 178,-180 172,-180"/>
<text text-anchor="middle" x="128.5" y="-159.5" font-family="sans" font-size="10.00" fill="#000000">heterogenous_filter</text>
</g>
<!-- 2&#45;&gt;0 -->
<g id="edge2" class="edge">
<title>2&#45;&gt;0</title>
<path fill="none" stroke="#c0c0c0" stroke-width="2" d="M139.1387,-143.7623C153.7185,-118.7682 180.0128,-73.6924 196.8428,-44.8409"/>
<polygon fill="#c0c0c0" stroke="#c0c0c0" stroke-width="2" points="199.9322,-46.491 201.9477,-36.0896 193.8857,-42.9639 199.9322,-46.491"/>
</g>
<!-- 3 -->
<g id="node4" class="node">
<title>3</title>
<path fill="none" stroke="#d8b456" stroke-width="2" d="M207,-324C207,-324 100,-324 100,-324 94,-324 88,-318 88,-312 88,-312 88,-300 88,-300 88,-294 94,-288 100,-288 100,-288 207,-288 207,-288 213,-288 219,-294 219,-300 219,-300 219,-312 219,-312 219,-318 213,-324 207,-324"/>
<text text-anchor="middle" x="153.5" y="-303.5" font-family="sans" font-size="10.00" fill="#000000">backward_literature_LB</text>
</g>
<!-- 3&#45;&gt;2 -->
<g id="edge6" class="edge">
<title>3&#45;&gt;2</title>
<path fill="none" stroke="#c0c0c0" stroke-width="2" d="M150.3337,-287.7623C146.0508,-263.0928 138.3715,-218.8598 133.3564,-189.9731"/>
<polygon fill="#c0c0c0" stroke="#c0c0c0" stroke-width="2" points="136.7996,-189.3435 131.6406,-180.0896 129.9027,-190.541 136.7996,-189.3435"/>
</g>
<!-- 6 -->
<g id="node7" class="node">
<title>6</title>
<path fill="none" stroke="#9fd856" stroke-width="2" d="M229,-252C229,-252 196,-252 196,-252 190,-252 184,-246 184,-240 184,-240 184,-228 184,-228 184,-222 190,-216 196,-216 196,-216 229,-216 229,-216 235,-216 241,-222 241,-228 241,-228 241,-240 241,-240 241,-246 235,-252 229,-252"/>
<text text-anchor="middle" x="212.5" y="-231.5" font-family="sans" font-size="10.00" fill="#000000">collapse</text>
</g>
<!-- 3&#45;&gt;6 -->
<g id="edge10" class="edge">
<title>3&#45;&gt;6</title>
<path fill="none" stroke="#c0c0c0" stroke-width="2" d="M168.3882,-287.8314C175.253,-279.454 183.5301,-269.3531 191.0511,-260.1749"/>
<polygon fill="#c0c0c0" stroke="#c0c0c0" stroke-width="2" points="193.7803,-262.3665 197.4114,-252.4133 188.3659,-257.9297 193.7803,-262.3665"/>
</g>
<!-- 4 -->
<g id="node5" class="node">
<title>4</title>
<path fill="none" stroke="#5682d8" stroke-width="2" d="M183,-396C183,-396 124,-396 124,-396 118,-396 112,-390 112,-384 112,-384 112,-372 112,-372 112,-366 118,-360 124,-360 124,-360 183,-360 183,-360 189,-360 195,-366 195,-372 195,-372 195,-384 195,-384 195,-390 189,-396 183,-396"/>
<text text-anchor="middle" x="153.5" y="-375.5" font-family="sans" font-size="10.00" fill="#000000">version_array</text>
</g>
<!-- 4&#45;&gt;3 -->
<g id="edge7" class="edge">
<title>4&#45;&gt;3</title>
<path fill="none" stroke="#c0c0c0" stroke-width="2" d="M153.5,-359.8314C153.5,-352.131 153.5,-342.9743 153.5,-334.4166"/>
<polygon fill="#c0c0c0" stroke="#c0c0c0" stroke-width="2" points="157.0001,-334.4132 153.5,-324.4133 150.0001,-334.4133 157.0001,-334.4132"/>
</g>
<!-- 5&#45;&gt;4 -->
<g id="edge8" class="edge">
<title>5&#45;&gt;4</title>
<path fill="none" stroke="#c0c0c0" stroke-width="2" d="M153.5,-431.8314C153.5,-424.131 153.5,-414.9743 153.5,-406.4166"/>
<polygon fill="#c0c0c0" stroke="#c0c0c0" stroke-width="2" points="157.0001,-406.4132 153.5,-396.4133 150.0001,-406.4133 157.0001,-406.4132"/>
</g>
<!-- 6&#45;&gt;0 -->
<g id="edge3" class="edge">
<title>6&#45;&gt;0</title>
<path fill="none" stroke="#c0c0c0" stroke-width="2" d="M212.5,-215.9555C212.5,-178.3938 212.5,-91.5541 212.5,-46.4103"/>
<polygon fill="#c0c0c0" stroke="#c0c0c0" stroke-width="2" points="216.0001,-46.145 212.5,-36.1451 209.0001,-46.1451 216.0001,-46.145"/>
</g>
<!-- 8 -->
<g id="node9" class="node">
<title>8</title>
<path fill="none" stroke="#56d8c9" stroke-width="2" d="M365.5,-180C365.5,-180 297.5,-180 297.5,-180 291.5,-180 285.5,-174 285.5,-168 285.5,-168 285.5,-156 285.5,-156 285.5,-150 291.5,-144 297.5,-144 297.5,-144 365.5,-144 365.5,-144 371.5,-144 377.5,-150 377.5,-156 377.5,-156 377.5,-168 377.5,-168 377.5,-174 371.5,-180 365.5,-180"/>
<text text-anchor="middle" x="331.5" y="-159.5" font-family="sans" font-size="10.00" fill="#000000">hostspot_finder</text>
</g>
<!-- 6&#45;&gt;8 -->
<g id="edge12" class="edge">
<title>6&#45;&gt;8</title>
<path fill="none" stroke="#c0c0c0" stroke-width="2" d="M241.0035,-216.7542C256.5787,-207.3306 276.0854,-195.5282 292.9963,-185.2963"/>
<polygon fill="#c0c0c0" stroke="#c0c0c0" stroke-width="2" points="294.8245,-188.2811 301.5685,-180.1098 291.2008,-182.292 294.8245,-188.2811"/>
</g>
<!-- 7 -->
<g id="node8" class="node">
<title>7</title>
<path fill="none" stroke="#d88556" stroke-width="2" d="M410,-108C410,-108 253,-108 253,-108 247,-108 241,-102 241,-96 241,-96 241,-84 241,-84 241,-78 247,-72 253,-72 253,-72 410,-72 410,-72 416,-72 422,-78 422,-84 422,-84 422,-96 422,-96 422,-102 416,-108 410,-108"/>
<text text-anchor="middle" x="331.5" y="-93" font-family="sans" font-size="10.00" fill="#000000">appending_single_studies_results</text>
<text text-anchor="middle" x="331.5" y="-82" font-family="sans" font-size="10.00" fill="#000000">single_studies: CHRIS</text>
</g>
<!-- 7&#45;&gt;0 -->
<g id="edge4" class="edge">
<title>7&#45;&gt;0</title>
<path fill="none" stroke="#c0c0c0" stroke-width="2" d="M301.4713,-71.8314C285.2887,-62.0402 265.2149,-49.8947 248.2324,-39.6196"/>
<polygon fill="#c0c0c0" stroke="#c0c0c0" stroke-width="2" points="250.0382,-36.6214 239.6705,-34.4393 246.4145,-42.6105 250.0382,-36.6214"/>
</g>
<!-- 8&#45;&gt;7 -->
<g id="edge11" class="edge">
<title>8&#45;&gt;7</title>
<path fill="none" stroke="#c0c0c0" stroke-width="2" d="M331.5,-143.8314C331.5,-136.131 331.5,-126.9743 331.5,-118.4166"/>
<polygon fill="#c0c0c0" stroke="#c0c0c0" stroke-width="2" points="335.0001,-118.4132 331.5,-108.4133 328.0001,-118.4133 335.0001,-118.4132"/>
</g>
<!-- 9 -->
<g id="node10" class="node">
<title>9</title>
<path fill="none" stroke="#d88556" stroke-width="2" d="M609,-108C609,-108 452,-108 452,-108 446,-108 440,-102 440,-96 440,-96 440,-84 440,-84 440,-78 446,-72 452,-72 452,-72 609,-72 609,-72 615,-72 621,-78 621,-84 621,-84 621,-96 621,-96 621,-102 615,-108 609,-108"/>
<text text-anchor="middle" x="530.5" y="-93" font-family="sans" font-size="10.00" fill="#000000">appending_single_studies_results</text>
<text text-anchor="middle" x="530.5" y="-82" font-family="sans" font-size="10.00" fill="#000000">single_studies: INTERVAL</text>
</g>
<!-- 8&#45;&gt;9 -->
<g id="edge13" class="edge">
<title>8&#45;&gt;9</title>
<path fill="none" stroke="#c0c0c0" stroke-width="2" d="M377.6548,-145.3008C405.4209,-135.2547 441.0558,-122.3617 470.9319,-111.5523"/>
<polygon fill="#c0c0c0" stroke="#c0c0c0" stroke-width="2" points="472.1997,-114.8157 480.4124,-108.1222 469.8181,-108.2333 472.1997,-114.8157"/>
</g>
<!-- 9&#45;&gt;0 -->
<g id="edge5" class="edge">
<title>9&#45;&gt;0</title>
<path fill="none" stroke="#c0c0c0" stroke-width="2" d="M450.6656,-71.9243C386.2547,-57.3407 298.5731,-37.4883 249.5612,-26.3912"/>
<polygon fill="#c0c0c0" stroke="#c0c0c0" stroke-width="2" points="250.2379,-22.9559 239.7118,-24.1612 248.692,-29.7831 250.2379,-22.9559"/>
</g>
</g>
</svg>
