<?xml version="1.0" encoding="UTF-8" standalone="no"?>
<!DOCTYPE svg PUBLIC "-//W3C//DTD SVG 1.1//EN"
 "http://www.w3.org/Graphics/SVG/1.1/DTD/svg11.dtd">
<!-- Generated by graphviz version 2.50.0 (0)
 -->
<!-- Title: snakemake_dag Pages: 1 -->
<svg width="440pt" height="404pt"
 viewBox="0.00 0.00 440.00 404.00" xmlns="http://www.w3.org/2000/svg" xmlns:xlink="http://www.w3.org/1999/xlink">
<g id="graph0" class="graph" transform="scale(1 1) rotate(0) translate(4 400)">
<title>snakemake_dag</title>
<polygon fill="white" stroke="transparent" points="-4,4 -4,-400 436,-400 436,4 -4,4"/>
<!-- 0 -->
<g id="node1" class="node">
<title>0</title>
<path fill="none" stroke="#d8a456" stroke-width="2" d="M138.5,-36C138.5,-36 108.5,-36 108.5,-36 102.5,-36 96.5,-30 96.5,-24 96.5,-24 96.5,-12 96.5,-12 96.5,-6 102.5,0 108.5,0 108.5,0 138.5,0 138.5,0 144.5,0 150.5,-6 150.5,-12 150.5,-12 150.5,-24 150.5,-24 150.5,-30 144.5,-36 138.5,-36"/>
<text text-anchor="middle" x="123.5" y="-15.5" font-family="sans" font-size="10.00">all</text>
</g>
<!-- 1 -->
<g id="node2" class="node">
<title>1</title>
<path fill="none" stroke="#56d87b" stroke-width="2" d="M128,-324C128,-324 87,-324 87,-324 81,-324 75,-318 75,-312 75,-312 75,-300 75,-300 75,-294 81,-288 87,-288 87,-288 128,-288 128,-288 134,-288 140,-294 140,-300 140,-300 140,-312 140,-312 140,-318 134,-324 128,-324"/>
<text text-anchor="middle" x="107.5" y="-303.5" font-family="sans" font-size="10.00">collect_loci</text>
</g>
<!-- 1&#45;&gt;0 -->
<g id="edge1" class="edge">
<title>1&#45;&gt;0</title>
<path fill="none" stroke="grey" stroke-width="2" d="M91.04,-287.92C82.85,-278.22 73.8,-265.37 69.5,-252 64.6,-236.77 68.23,-231.95 69.5,-216 74.63,-151.39 70.65,-133.02 92.5,-72 95.82,-62.71 100.8,-53.22 105.79,-44.87"/>
<polygon fill="grey" stroke="grey" stroke-width="2" points="108.79,-46.67 111.14,-36.34 102.86,-42.95 108.79,-46.67"/>
</g>
<!-- 4 -->
<g id="node5" class="node">
<title>4</title>
<path fill="none" stroke="#78d856" stroke-width="2" d="M250,-252C250,-252 91,-252 91,-252 85,-252 79,-246 79,-240 79,-240 79,-228 79,-228 79,-222 85,-216 91,-216 91,-216 250,-216 250,-216 256,-216 262,-222 262,-228 262,-228 262,-240 262,-240 262,-246 256,-252 250,-252"/>
<text text-anchor="middle" x="170.5" y="-231.5" font-family="sans" font-size="10.00">select_best_SNP_from_LocusBreaker</text>
</g>
<!-- 1&#45;&gt;4 -->
<g id="edge8" class="edge">
<title>1&#45;&gt;4</title>
<path fill="none" stroke="grey" stroke-width="2" d="M123.07,-287.7C130.7,-279.22 140.02,-268.86 148.38,-259.58"/>
<polygon fill="grey" stroke="grey" stroke-width="2" points="151.02,-261.88 155.11,-252.1 145.81,-257.2 151.02,-261.88"/>
</g>
<!-- 2 -->
<g id="node3" class="node">
<title>2</title>
<path fill="none" stroke="#56d8c9" stroke-width="2" d="M87,-396C87,-396 12,-396 12,-396 6,-396 0,-390 0,-384 0,-384 0,-372 0,-372 0,-366 6,-360 12,-360 12,-360 87,-360 87,-360 93,-360 99,-366 99,-372 99,-372 99,-384 99,-384 99,-390 93,-396 87,-396"/>
<text text-anchor="middle" x="49.5" y="-381" font-family="sans" font-size="10.00">break_locus</text>
<text text-anchor="middle" x="49.5" y="-370" font-family="sans" font-size="10.00">seqid: seq.00001.1</text>
</g>
<!-- 2&#45;&gt;1 -->
<g id="edge6" class="edge">
<title>2&#45;&gt;1</title>
<path fill="none" stroke="grey" stroke-width="2" d="M63.84,-359.7C70.79,-351.3 79.27,-341.07 86.9,-331.86"/>
<polygon fill="grey" stroke="grey" stroke-width="2" points="89.64,-334.04 93.33,-324.1 84.25,-329.57 89.64,-334.04"/>
</g>
<!-- 3 -->
<g id="node4" class="node">
<title>3</title>
<path fill="none" stroke="#56d8c9" stroke-width="2" d="M204,-396C204,-396 129,-396 129,-396 123,-396 117,-390 117,-384 117,-384 117,-372 117,-372 117,-366 123,-360 129,-360 129,-360 204,-360 204,-360 210,-360 216,-366 216,-372 216,-372 216,-384 216,-384 216,-390 210,-396 204,-396"/>
<text text-anchor="middle" x="166.5" y="-381" font-family="sans" font-size="10.00">break_locus</text>
<text text-anchor="middle" x="166.5" y="-370" font-family="sans" font-size="10.00">seqid: seq.00001.2</text>
</g>
<!-- 3&#45;&gt;1 -->
<g id="edge7" class="edge">
<title>3&#45;&gt;1</title>
<path fill="none" stroke="grey" stroke-width="2" d="M151.92,-359.7C144.84,-351.3 136.22,-341.07 128.45,-331.86"/>
<polygon fill="grey" stroke="grey" stroke-width="2" points="131.04,-329.49 121.92,-324.1 125.69,-334.01 131.04,-329.49"/>
</g>
<!-- 4&#45;&gt;0 -->
<g id="edge2" class="edge">
<title>4&#45;&gt;0</title>
<path fill="none" stroke="grey" stroke-width="2" d="M138.45,-215.88C125.38,-207.05 111.68,-194.97 104.5,-180 83.66,-136.53 99.21,-79.16 111.79,-45.94"/>
<polygon fill="grey" stroke="grey" stroke-width="2" points="115.12,-47.04 115.55,-36.45 108.61,-44.46 115.12,-47.04"/>
</g>
<!-- 5 -->
<g id="node6" class="node">
<title>5</title>
<path fill="none" stroke="#d85656" stroke-width="2" d="M221,-180C221,-180 126,-180 126,-180 120,-180 114,-174 114,-168 114,-168 114,-156 114,-156 114,-150 120,-144 126,-144 126,-144 221,-144 221,-144 227,-144 233,-150 233,-156 233,-156 233,-168 233,-168 233,-174 227,-180 221,-180"/>
<text text-anchor="middle" x="173.5" y="-159.5" font-family="sans" font-size="10.00">backward_literature_LB</text>
</g>
<!-- 4&#45;&gt;5 -->
<g id="edge9" class="edge">
<title>4&#45;&gt;5</title>
<path fill="none" stroke="grey" stroke-width="2" d="M171.24,-215.7C171.57,-207.98 171.97,-198.71 172.34,-190.11"/>
<polygon fill="grey" stroke="grey" stroke-width="2" points="175.84,-190.25 172.77,-180.1 168.84,-189.95 175.84,-190.25"/>
</g>
<!-- 7 -->
<g id="node8" class="node">
<title>7</title>
<path fill="none" stroke="#56a2d8" stroke-width="2" d="M420,-108C420,-108 345,-108 345,-108 339,-108 333,-102 333,-96 333,-96 333,-84 333,-84 333,-78 339,-72 345,-72 345,-72 420,-72 420,-72 426,-72 432,-78 432,-84 432,-84 432,-96 432,-96 432,-102 426,-108 420,-108"/>
<text text-anchor="middle" x="382.5" y="-87.5" font-family="sans" font-size="10.00">heterogenous_filter</text>
</g>
<!-- 4&#45;&gt;7 -->
<g id="edge11" class="edge">
<title>4&#45;&gt;7</title>
<path fill="none" stroke="grey" stroke-width="2" d="M196.07,-215.87C234.19,-190.34 305.98,-142.25 348.49,-113.78"/>
<polygon fill="grey" stroke="grey" stroke-width="2" points="350.48,-116.66 356.84,-108.19 346.58,-110.85 350.48,-116.66"/>
</g>
<!-- 5&#45;&gt;0 -->
<g id="edge3" class="edge">
<title>5&#45;&gt;0</title>
<path fill="none" stroke="grey" stroke-width="2" d="M161.39,-143.57C154.94,-133.56 147.35,-120.52 142.5,-108 134.76,-88.02 129.88,-64.23 127.02,-46.28"/>
<polygon fill="grey" stroke="grey" stroke-width="2" points="130.45,-45.57 125.52,-36.2 123.53,-46.6 130.45,-45.57"/>
</g>
<!-- 6 -->
<g id="node7" class="node">
<title>6</title>
<path fill="none" stroke="#c6d856" stroke-width="2" d="M303,-108C303,-108 164,-108 164,-108 158,-108 152,-102 152,-96 152,-96 152,-84 152,-84 152,-78 158,-72 164,-72 164,-72 303,-72 303,-72 309,-72 315,-78 315,-84 315,-84 315,-96 315,-96 315,-102 309,-108 303,-108"/>
<text text-anchor="middle" x="233.5" y="-87.5" font-family="sans" font-size="10.00">appending_single_studies_results</text>
</g>
<!-- 5&#45;&gt;6 -->
<g id="edge10" class="edge">
<title>5&#45;&gt;6</title>
<path fill="none" stroke="grey" stroke-width="2" d="M188.33,-143.7C195.52,-135.3 204.3,-125.07 212.19,-115.86"/>
<polygon fill="grey" stroke="grey" stroke-width="2" points="214.99,-117.97 218.84,-108.1 209.67,-113.42 214.99,-117.97"/>
</g>
<!-- 6&#45;&gt;0 -->
<g id="edge4" class="edge">
<title>6&#45;&gt;0</title>
<path fill="none" stroke="grey" stroke-width="2" d="M206.59,-71.88C192.34,-62.81 174.65,-51.55 159.26,-41.76"/>
<polygon fill="grey" stroke="grey" stroke-width="2" points="160.83,-38.61 150.51,-36.19 157.07,-44.51 160.83,-38.61"/>
</g>
<!-- 7&#45;&gt;0 -->
<g id="edge5" class="edge">
<title>7&#45;&gt;0</title>
<path fill="none" stroke="grey" stroke-width="2" d="M332.85,-74.35C330.03,-73.55 327.23,-72.76 324.5,-72 267.41,-56.11 200.86,-38.8 160.48,-28.43"/>
<polygon fill="grey" stroke="grey" stroke-width="2" points="161.1,-24.97 150.55,-25.88 159.37,-31.76 161.1,-24.97"/>
</g>
</g>
</svg>
