<?xml version="1.0" encoding="UTF-8" standalone="no"?>
<!DOCTYPE svg PUBLIC "-//W3C//DTD SVG 1.1//EN"
 "http://www.w3.org/Graphics/SVG/1.1/DTD/svg11.dtd">
<!-- Generated by graphviz version 2.50.0 (0)
 -->
<!-- Title: snakemake_dag Pages: 1 -->
<svg width="358pt" height="332pt"
 viewBox="0.00 0.00 358.00 332.00" xmlns="http://www.w3.org/2000/svg" xmlns:xlink="http://www.w3.org/1999/xlink">
<g id="graph0" class="graph" transform="scale(1 1) rotate(0) translate(4 328)">
<title>snakemake_dag</title>
<polygon fill="white" stroke="transparent" points="-4,4 -4,-328 354,-328 354,4 -4,4"/>
<!-- 0 -->
<g id="node1" class="node">
<title>0</title>
<path fill="none" stroke="#56a9d8" stroke-width="2" d="M144.5,-36C144.5,-36 114.5,-36 114.5,-36 108.5,-36 102.5,-30 102.5,-24 102.5,-24 102.5,-12 102.5,-12 102.5,-6 108.5,0 114.5,0 114.5,0 144.5,0 144.5,0 150.5,0 156.5,-6 156.5,-12 156.5,-12 156.5,-24 156.5,-24 156.5,-30 150.5,-36 144.5,-36"/>
<text text-anchor="middle" x="129.5" y="-15.5" font-family="sans" font-size="10.00">all</text>
</g>
<!-- 1 -->
<g id="node2" class="node">
<title>1</title>
<path fill="none" stroke="#d8ac56" stroke-width="2" d="M128,-252C128,-252 87,-252 87,-252 81,-252 75,-246 75,-240 75,-240 75,-228 75,-228 75,-222 81,-216 87,-216 87,-216 128,-216 128,-216 134,-216 140,-222 140,-228 140,-228 140,-240 140,-240 140,-246 134,-252 128,-252"/>
<text text-anchor="middle" x="107.5" y="-231.5" font-family="sans" font-size="10.00">collect_loci</text>
</g>
<!-- 1&#45;&gt;0 -->
<g id="edge1" class="edge">
<title>1&#45;&gt;0</title>
<path fill="none" stroke="grey" stroke-width="2" d="M91.04,-215.92C82.85,-206.22 73.8,-193.37 69.5,-180 64.6,-164.77 66.65,-159.74 69.5,-144 76.16,-107.25 96.8,-69.12 112.01,-44.79"/>
<polygon fill="grey" stroke="grey" stroke-width="2" points="115.09,-46.48 117.54,-36.17 109.19,-42.7 115.09,-46.48"/>
</g>
<!-- 4 -->
<g id="node5" class="node">
<title>4</title>
<path fill="none" stroke="#56d8a9" stroke-width="2" d="M250,-180C250,-180 91,-180 91,-180 85,-180 79,-174 79,-168 79,-168 79,-156 79,-156 79,-150 85,-144 91,-144 91,-144 250,-144 250,-144 256,-144 262,-150 262,-156 262,-156 262,-168 262,-168 262,-174 256,-180 250,-180"/>
<text text-anchor="middle" x="170.5" y="-159.5" font-family="sans" font-size="10.00">select_best_SNP_from_LocusBreaker</text>
</g>
<!-- 1&#45;&gt;4 -->
<g id="edge7" class="edge">
<title>1&#45;&gt;4</title>
<path fill="none" stroke="grey" stroke-width="2" d="M123.07,-215.7C130.7,-207.22 140.02,-196.86 148.38,-187.58"/>
<polygon fill="grey" stroke="grey" stroke-width="2" points="151.02,-189.88 155.11,-180.1 145.81,-185.2 151.02,-189.88"/>
</g>
<!-- 2 -->
<g id="node3" class="node">
<title>2</title>
<path fill="none" stroke="#afd856" stroke-width="2" d="M87,-324C87,-324 12,-324 12,-324 6,-324 0,-318 0,-312 0,-312 0,-300 0,-300 0,-294 6,-288 12,-288 12,-288 87,-288 87,-288 93,-288 99,-294 99,-300 99,-300 99,-312 99,-312 99,-318 93,-324 87,-324"/>
<text text-anchor="middle" x="49.5" y="-309" font-family="sans" font-size="10.00">break_locus</text>
<text text-anchor="middle" x="49.5" y="-298" font-family="sans" font-size="10.00">seqid: seq.00001.1</text>
</g>
<!-- 2&#45;&gt;1 -->
<g id="edge5" class="edge">
<title>2&#45;&gt;1</title>
<path fill="none" stroke="grey" stroke-width="2" d="M63.84,-287.7C70.79,-279.3 79.27,-269.07 86.9,-259.86"/>
<polygon fill="grey" stroke="grey" stroke-width="2" points="89.64,-262.04 93.33,-252.1 84.25,-257.57 89.64,-262.04"/>
</g>
<!-- 3 -->
<g id="node4" class="node">
<title>3</title>
<path fill="none" stroke="#afd856" stroke-width="2" d="M204,-324C204,-324 129,-324 129,-324 123,-324 117,-318 117,-312 117,-312 117,-300 117,-300 117,-294 123,-288 129,-288 129,-288 204,-288 204,-288 210,-288 216,-294 216,-300 216,-300 216,-312 216,-312 216,-318 210,-324 204,-324"/>
<text text-anchor="middle" x="166.5" y="-309" font-family="sans" font-size="10.00">break_locus</text>
<text text-anchor="middle" x="166.5" y="-298" font-family="sans" font-size="10.00">seqid: seq.00001.2</text>
</g>
<!-- 3&#45;&gt;1 -->
<g id="edge6" class="edge">
<title>3&#45;&gt;1</title>
<path fill="none" stroke="grey" stroke-width="2" d="M151.92,-287.7C144.84,-279.3 136.22,-269.07 128.45,-259.86"/>
<polygon fill="grey" stroke="grey" stroke-width="2" points="131.04,-257.49 121.92,-252.1 125.69,-262.01 131.04,-257.49"/>
</g>
<!-- 4&#45;&gt;0 -->
<g id="edge2" class="edge">
<title>4&#45;&gt;0</title>
<path fill="none" stroke="grey" stroke-width="2" d="M138.45,-143.88C125.38,-135.05 111.68,-122.97 104.5,-108 94.81,-87.79 103.13,-63.14 112.7,-44.92"/>
<polygon fill="grey" stroke="grey" stroke-width="2" points="115.85,-46.45 117.73,-36.03 109.76,-43.01 115.85,-46.45"/>
</g>
<!-- 5 -->
<g id="node6" class="node">
<title>5</title>
<path fill="none" stroke="#59d856" stroke-width="2" d="M221,-108C221,-108 126,-108 126,-108 120,-108 114,-102 114,-96 114,-96 114,-84 114,-84 114,-78 120,-72 126,-72 126,-72 221,-72 221,-72 227,-72 233,-78 233,-84 233,-84 233,-96 233,-96 233,-102 227,-108 221,-108"/>
<text text-anchor="middle" x="173.5" y="-87.5" font-family="sans" font-size="10.00">backward_literature_LB</text>
</g>
<!-- 4&#45;&gt;5 -->
<g id="edge8" class="edge">
<title>4&#45;&gt;5</title>
<path fill="none" stroke="grey" stroke-width="2" d="M171.24,-143.7C171.57,-135.98 171.97,-126.71 172.34,-118.11"/>
<polygon fill="grey" stroke="grey" stroke-width="2" points="175.84,-118.25 172.77,-108.1 168.84,-117.95 175.84,-118.25"/>
</g>
<!-- 6 -->
<g id="node7" class="node">
<title>6</title>
<path fill="none" stroke="#d85656" stroke-width="2" d="M338,-108C338,-108 263,-108 263,-108 257,-108 251,-102 251,-96 251,-96 251,-84 251,-84 251,-78 257,-72 263,-72 263,-72 338,-72 338,-72 344,-72 350,-78 350,-84 350,-84 350,-96 350,-96 350,-102 344,-108 338,-108"/>
<text text-anchor="middle" x="300.5" y="-87.5" font-family="sans" font-size="10.00">heterogenous_filter</text>
</g>
<!-- 4&#45;&gt;6 -->
<g id="edge9" class="edge">
<title>4&#45;&gt;6</title>
<path fill="none" stroke="grey" stroke-width="2" d="M202.3,-143.88C219.61,-134.55 241.22,-122.92 259.76,-112.94"/>
<polygon fill="grey" stroke="grey" stroke-width="2" points="261.43,-116.01 268.58,-108.19 258.11,-109.85 261.43,-116.01"/>
</g>
<!-- 5&#45;&gt;0 -->
<g id="edge3" class="edge">
<title>5&#45;&gt;0</title>
<path fill="none" stroke="grey" stroke-width="2" d="M162.62,-71.7C157.51,-63.56 151.3,-53.69 145.66,-44.7"/>
<polygon fill="grey" stroke="grey" stroke-width="2" points="148.54,-42.71 140.25,-36.1 142.61,-46.43 148.54,-42.71"/>
</g>
<!-- 6&#45;&gt;0 -->
<g id="edge4" class="edge">
<title>6&#45;&gt;0</title>
<path fill="none" stroke="grey" stroke-width="2" d="M258.67,-71.88C230.31,-60.27 193.2,-45.08 166.03,-33.95"/>
<polygon fill="grey" stroke="grey" stroke-width="2" points="167.09,-30.61 156.51,-30.06 164.44,-37.08 167.09,-30.61"/>
</g>
</g>
</svg>
